<svg width="23" height="24" viewBox="0 0 23 24" fill="none" xmlns="http://www.w3.org/2000/svg">
<path d="M11.5 0C7.46928 0 4.18182 3.28125 4.18182 7.30435C4.18182 9.78668 5.4478 11.9837 7.35085 13.3043C3.05877 14.9755 0 19.1495 0 24H2.09091C2.09091 19.4103 5.42738 15.5747 9.80114 14.7717L10.4545 16.6957H12.5455L13.1989 14.7717C17.5726 15.5747 20.9091 19.4103 20.9091 24H23C23 19.1495 19.9412 14.9755 15.6491 13.3043C17.5522 11.9837 18.8182 9.78668 18.8182 7.30435C18.8182 3.28125 15.5307 0 11.5 0ZM11.5 2.08696C14.3995 2.08696 16.7273 4.41033 16.7273 7.30435C16.7273 10.1984 14.3995 12.5217 11.5 12.5217C8.6005 12.5217 6.27273 10.1984 6.27273 7.30435C6.27273 4.41033 8.6005 2.08696 11.5 2.08696ZM10.4545 17.7391L9.40909 24H13.5909L12.5455 17.7391H10.4545Z" fill="#8C52FF"/>
</svg>
