<svg width="23" height="23" viewBox="0 0 23 23" fill="none" xmlns="http://www.w3.org/2000/svg">
<path d="M2.43756 16.9061C1.41168 16.4227 0.702393 15.38 0.702393 14.1704V8.83079C0.702393 7.16329 2.05331 5.80996 3.72323 5.80996H8.97102C9.92922 5.80996 10.8814 5.65046 11.7864 5.33629C14.0327 4.48441 16.3684 3.2495 18.1181 1.80554L19.1681 0.937955C19.1863 0.922247 19.2068 0.907747 19.2274 0.894455C20.0321 0.382122 21.0858 0.959705 21.0858 1.91429V10.0307C21.7769 10.1636 22.2989 10.7714 22.2989 11.5012C22.2989 12.231 21.7769 12.8376 21.0858 12.9705V21.0881C21.0858 22.0391 20.0321 22.6191 19.2274 22.1067C19.2068 22.0935 19.1863 22.079 19.1669 22.0632L18.1181 21.1957C16.3708 19.7517 14.0533 18.5204 11.8034 17.7024C10.8995 17.387 9.94735 17.2263 8.99035 17.2263C8.25448 17.1912 7.46181 17.1912 7.46181 17.1912V19.7855C7.46181 21.1727 6.33685 22.2977 4.94968 22.2977C3.56252 22.2977 2.43756 21.1727 2.43756 19.7855V16.9061ZM3.64589 17.1912V19.7855C3.64589 20.5057 4.22952 21.0893 4.94968 21.0893C5.66985 21.0893 6.25348 20.5057 6.25348 19.7855V17.1912H3.72323C3.68577 17.1912 3.65918 17.1912 3.64589 17.1912ZM10.8959 16.1255L11.0675 16.1738C13.9312 16.9762 16.5956 18.3694 18.889 20.264L19.8774 21.0821V1.91912L18.8866 2.73716C16.5944 4.62941 13.9324 6.02021 11.0711 6.82012L10.8959 6.86966V16.1255ZM7.46181 15.9829H9.68756V7.01829H3.72323C2.72152 7.01829 1.91073 7.83029 1.91073 8.83079V14.1704C1.91073 15.1721 2.72152 15.9829 3.72202 15.9829H7.46181Z" fill="#8C52FF"/>
</svg>
